<svg xmlns="http://www.w3.org/2000/svg" width="1920" height="1080"><path d="M700,1318L547,1352L1133,1319Z" fill="#5f8fa8" stroke="#5f8fa8" stroke-width="1.51"/><path d="M1133,1319L547,1352L1465,1402Z" fill="#4885ab" stroke="#4885ab" stroke-width="1.51"/><path d="M-201,-317L152,-308L1489,-337Z" fill="#d8f0d5" stroke="#d8f0d5" stroke-width="1.51"/><path d="M602,-294L943,-291L1489,-337Z" fill="#b8e2da" stroke="#b8e2da" stroke-width="1.51"/><path d="M152,-308L602,-294L1489,-337Z" fill="#c8e9d4" stroke="#c8e9d4" stroke-width="1.51"/><path d="M1489,-337L1690,-306L1907,-332Z" fill="#9bbbd4" stroke="#9bbbd4" stroke-width="1.51"/><path d="M1913,1259L1790,1347L2146,1244Z" fill="#0a5da1" stroke="#0a5da1" stroke-width="1.51"/><path d="M2061,836L1851,925L2222,1107Z" fill="#2173ad" stroke="#2173ad" stroke-width="1.51"/><path d="M1851,925L1899,1210L2222,1107Z" fill="#166cab" stroke="#166cab" stroke-width="1.51"/><path d="M2160,728L2061,836L2222,1107Z" fill="#2871a9" stroke="#2871a9" stroke-width="1.51"/><path d="M2019,532L2143,595L2226,414Z" fill="#538aa9" stroke="#538aa9" stroke-width="1.51"/><path d="M2024,299L2019,532L2226,414Z" fill="#6090a8" stroke="#6090a8" stroke-width="1.51"/><path d="M2151,94L2024,299L2226,414Z" fill="#6e92a5" stroke="#6e92a5" stroke-width="1.51"/><path d="M2143,595L2160,728L2226,414Z" fill="#4a84a8" stroke="#4a84a8" stroke-width="1.51"/><path d="M2194,-58L2151,94L2226,414Z" fill="#7792a5" stroke="#7792a5" stroke-width="1.51"/><path d="M2160,728L2222,1107L2226,414Z" fill="#3479ab" stroke="#3479ab" stroke-width="1.51"/><path d="M1899,1210L2146,1244L2222,1107Z" fill="#0b5da0" stroke="#0b5da0" stroke-width="1.51"/><path d="M1990,-64L2151,94L2194,-58Z" fill="#819ab1" stroke="#819ab1" stroke-width="1.51"/><path d="M2102,-236L1990,-64L2194,-58Z" fill="#869db8" stroke="#869db8" stroke-width="1.51"/><path d="M2143,595L1988,654L2160,728Z" fill="#4285af" stroke="#4285af" stroke-width="1.51"/><path d="M1988,654L2061,836L2160,728Z" fill="#3783b4" stroke="#3783b4" stroke-width="1.51"/><path d="M1899,1210L1913,1259L2146,1244Z" fill="#095fa3" stroke="#095fa3" stroke-width="1.51"/><path d="M1855,227L2024,299L2151,94Z" fill="#769caf" stroke="#769caf" stroke-width="1.51"/><path d="M1990,-64L1855,227L2151,94Z" fill="#80a1b5" stroke="#80a1b5" stroke-width="1.51"/><path d="M2019,532L1988,654L2143,595Z" fill="#4b8cb1" stroke="#4b8cb1" stroke-width="1.51"/><path d="M1784,106L1855,227L1990,-64Z" fill="#83a9bb" stroke="#83a9bb" stroke-width="1.51"/><path d="M1907,-332L1990,-64L2102,-236Z" fill="#8da6c3" stroke="#8da6c3" stroke-width="1.51"/><path d="M1851,925L1792,996L1899,1210Z" fill="#1d78b5" stroke="#1d78b5" stroke-width="1.51"/><path d="M1802,433L2019,532L2024,299Z" fill="#629ab3" stroke="#629ab3" stroke-width="1.51"/><path d="M1988,654L1781,754L2061,836Z" fill="#368bbd" stroke="#368bbd" stroke-width="1.51"/><path d="M1781,754L1851,925L2061,836Z" fill="#2e86bc" stroke="#2e86bc" stroke-width="1.51"/><path d="M1855,227L1802,433L2024,299Z" fill="#6fa1b2" stroke="#6fa1b2" stroke-width="1.51"/><path d="M1802,433L1988,654L2019,532Z" fill="#5297b7" stroke="#5297b7" stroke-width="1.51"/><path d="M1690,-306L1726,8L1907,-332Z" fill="#94b4cd" stroke="#94b4cd" stroke-width="1.51"/><path d="M1802,433L1727,618L1988,654Z" fill="#519bbb" stroke="#519bbb" stroke-width="1.51"/><path d="M1907,-332L1726,8L1990,-64Z" fill="#8dadc6" stroke="#8dadc6" stroke-width="1.51"/><path d="M1726,8L1784,106L1990,-64Z" fill="#88adc0" stroke="#88adc0" stroke-width="1.51"/><path d="M1727,618L1781,754L1988,654Z" fill="#4496bf" stroke="#4496bf" stroke-width="1.51"/><path d="M1792,996L1662,1053L1899,1210Z" fill="#1d78b4" stroke="#1d78b4" stroke-width="1.51"/><path d="M1899,1210L1790,1347L1913,1259Z" fill="#0d63a5" stroke="#0d63a5" stroke-width="1.51"/><path d="M1662,1053L1790,1347L1899,1210Z" fill="#136eaf" stroke="#136eaf" stroke-width="1.51"/><path d="M1781,754L1792,996L1851,925Z" fill="#2c87bc" stroke="#2c87bc" stroke-width="1.51"/><path d="M1784,106L1560,176L1855,227Z" fill="#81b0bc" stroke="#81b0bc" stroke-width="1.51"/><path d="M1550,366L1802,433L1855,227Z" fill="#71aab8" stroke="#71aab8" stroke-width="1.51"/><path d="M1560,176L1550,366L1855,227Z" fill="#7bb2bc" stroke="#7bb2bc" stroke-width="1.51"/><path d="M1500,810L1662,1053L1781,754Z" fill="#3392c2" stroke="#3392c2" stroke-width="1.51"/><path d="M1662,1053L1484,1155L1790,1347Z" fill="#1c78b4" stroke="#1c78b4" stroke-width="1.51"/><path d="M1781,754L1662,1053L1792,996Z" fill="#2a87bc" stroke="#2a87bc" stroke-width="1.51"/><path d="M1550,366L1727,618L1802,433Z" fill="#61a8bc" stroke="#61a8bc" stroke-width="1.51"/><path d="M1690,-306L1461,-13L1726,8Z" fill="#92bbcc" stroke="#92bbcc" stroke-width="1.51"/><path d="M1484,1155L1465,1402L1790,1347Z" fill="#2071ab" stroke="#2071ab" stroke-width="1.51"/><path d="M1445,-254L1461,-13L1690,-306Z" fill="#9ac3d3" stroke="#9ac3d3" stroke-width="1.51"/><path d="M1726,8L1560,176L1784,106Z" fill="#88b4c0" stroke="#88b4c0" stroke-width="1.51"/><path d="M1727,618L1522,635L1781,754Z" fill="#499fc3" stroke="#499fc3" stroke-width="1.51"/><path d="M1522,635L1500,810L1781,754Z" fill="#42a0c8" stroke="#42a0c8" stroke-width="1.51"/><path d="M1500,810L1456,913L1662,1053Z" fill="#3494c3" stroke="#3494c3" stroke-width="1.51"/><path d="M1461,-13L1560,176L1726,8Z" fill="#8cbcc5" stroke="#8cbcc5" stroke-width="1.51"/><path d="M1550,366L1522,635L1727,618Z" fill="#5aabc1" stroke="#5aabc1" stroke-width="1.51"/><path d="M1489,-337L1445,-254L1690,-306Z" fill="#9fc5d7" stroke="#9fc5d7" stroke-width="1.51"/><path d="M1416,565L1522,635L1550,366Z" fill="#61b2c4" stroke="#61b2c4" stroke-width="1.51"/><path d="M1456,913L1484,1155L1662,1053Z" fill="#2c8abe" stroke="#2c8abe" stroke-width="1.51"/><path d="M960,1285L700,1318L1133,1319Z" fill="#538ead" stroke="#538ead" stroke-width="1.51"/><path d="M1362,1261L1465,1402L1484,1155Z" fill="#2a7cb2" stroke="#2a7cb2" stroke-width="1.51"/><path d="M943,-291L1249,-210L1489,-337Z" fill="#abd8de" stroke="#abd8de" stroke-width="1.51"/><path d="M1430,762L1500,810L1522,635Z" fill="#47a7cb" stroke="#47a7cb" stroke-width="1.51"/><path d="M1351,250L1550,366L1560,176Z" fill="#7fbcc0" stroke="#7fbcc0" stroke-width="1.51"/><path d="M1410,117L1351,250L1560,176Z" fill="#89c2c4" stroke="#89c2c4" stroke-width="1.51"/><path d="M1461,-13L1410,117L1560,176Z" fill="#8fc1c7" stroke="#8fc1c7" stroke-width="1.51"/><path d="M1242,424L1416,565L1550,366Z" fill="#6ebbc5" stroke="#6ebbc5" stroke-width="1.51"/><path d="M1351,250L1242,424L1550,366Z" fill="#7cc0c2" stroke="#7cc0c2" stroke-width="1.51"/><path d="M1343,899L1223,994L1484,1155Z" fill="#3898c5" stroke="#3898c5" stroke-width="1.51"/><path d="M1456,913L1343,899L1484,1155Z" fill="#3595c3" stroke="#3595c3" stroke-width="1.51"/><path d="M1416,565L1430,762L1522,635Z" fill="#53aeca" stroke="#53aeca" stroke-width="1.51"/><path d="M1249,-210L1254,-64L1445,-254Z" fill="#a2d1d9" stroke="#a2d1d9" stroke-width="1.51"/><path d="M1445,-254L1254,-64L1461,-13Z" fill="#9bcbd4" stroke="#9bcbd4" stroke-width="1.51"/><path d="M1223,994L1217,1096L1484,1155Z" fill="#3895c4" stroke="#3895c4" stroke-width="1.51"/><path d="M1217,1096L1354,1213L1484,1155Z" fill="#328cbf" stroke="#328cbf" stroke-width="1.51"/><path d="M1354,1213L1362,1261L1484,1155Z" fill="#2d84bb" stroke="#2d84bb" stroke-width="1.51"/><path d="M1430,762L1456,913L1500,810Z" fill="#40a1ca" stroke="#40a1ca" stroke-width="1.51"/><path d="M1430,762L1343,899L1456,913Z" fill="#41a1ca" stroke="#41a1ca" stroke-width="1.51"/><path d="M1249,-210L1445,-254L1489,-337Z" fill="#a3ceda" stroke="#a3ceda" stroke-width="1.51"/><path d="M1362,1261L1133,1319L1465,1402Z" fill="#317db1" stroke="#317db1" stroke-width="1.51"/><path d="M1254,-64L1410,117L1461,-13Z" fill="#96cace" stroke="#96cace" stroke-width="1.51"/><path d="M1416,565L1159,728L1430,762Z" fill="#55b3cf" stroke="#55b3cf" stroke-width="1.51"/><path d="M1159,728L1343,899L1430,762Z" fill="#4aadd0" stroke="#4aadd0" stroke-width="1.51"/><path d="M1242,424L1113,551L1416,565Z" fill="#6cc1ca" stroke="#6cc1ca" stroke-width="1.51"/><path d="M1113,551L1159,728L1416,565Z" fill="#63bdcd" stroke="#63bdcd" stroke-width="1.51"/><path d="M1098,167L1351,250L1410,117Z" fill="#8fccc9" stroke="#8fccc9" stroke-width="1.51"/><path d="M1254,-64L1098,167L1410,117Z" fill="#99d0ce" stroke="#99d0ce" stroke-width="1.51"/><path d="M1354,1213L1133,1319L1362,1261Z" fill="#3386b9" stroke="#3386b9" stroke-width="1.51"/><path d="M1217,1096L1133,1319L1354,1213Z" fill="#3a8dbe" stroke="#3a8dbe" stroke-width="1.51"/><path d="M1098,167L1242,424L1351,250Z" fill="#89cbc5" stroke="#89cbc5" stroke-width="1.51"/><path d="M1159,728L1223,994L1343,899Z" fill="#49aacd" stroke="#49aacd" stroke-width="1.51"/><path d="M91,1270L-273,1334L547,1352Z" fill="#839db4" stroke="#839db4" stroke-width="1.51"/><path d="M1023,1134L1133,1319L1217,1096Z" fill="#4593bd" stroke="#4593bd" stroke-width="1.51"/><path d="M1159,728L943,885L1223,994Z" fill="#56afca" stroke="#56afca" stroke-width="1.51"/><path d="M1098,167L1043,262L1242,424Z" fill="#8ecfc2" stroke="#8ecfc2" stroke-width="1.51"/><path d="M943,-291L1138,-118L1249,-210Z" fill="#addbd7" stroke="#addbd7" stroke-width="1.51"/><path d="M1249,-210L1138,-118L1254,-64Z" fill="#a4d6d6" stroke="#a4d6d6" stroke-width="1.51"/><path d="M1138,-118L1098,167L1254,-64Z" fill="#a1d5cf" stroke="#a1d5cf" stroke-width="1.51"/><path d="M1043,262L1113,551L1242,424Z" fill="#80cac4" stroke="#80cac4" stroke-width="1.51"/><path d="M1023,1134L1217,1096L1223,994Z" fill="#479cc2" stroke="#479cc2" stroke-width="1.51"/><path d="M943,885L1023,1134L1223,994Z" fill="#51a5c3" stroke="#51a5c3" stroke-width="1.51"/><path d="M1023,1134L960,1285L1133,1319Z" fill="#4c91b5" stroke="#4c91b5" stroke-width="1.51"/><path d="M882,-7L1098,167L1138,-118Z" fill="#a6dacb" stroke="#a6dacb" stroke-width="1.51"/><path d="M1113,551L927,709L1159,728Z" fill="#6ac0cb" stroke="#6ac0cb" stroke-width="1.51"/><path d="M927,709L943,885L1159,728Z" fill="#63bccc" stroke="#63bccc" stroke-width="1.51"/><path d="M1032,241L1043,262L1098,167Z" fill="#97d3c3" stroke="#97d3c3" stroke-width="1.51"/><path d="M1043,262L791,376L1113,551Z" fill="#8ad0c0" stroke="#8ad0c0" stroke-width="1.51"/><path d="M943,-291L844,-82L1138,-118Z" fill="#b2e0d2" stroke="#b2e0d2" stroke-width="1.51"/><path d="M844,-82L882,-7L1138,-118Z" fill="#aedfcd" stroke="#aedfcd" stroke-width="1.51"/><path d="M791,376L874,624L1113,551Z" fill="#80cec2" stroke="#80cec2" stroke-width="1.51"/><path d="M874,624L927,709L1113,551Z" fill="#73c6c8" stroke="#73c6c8" stroke-width="1.51"/><path d="M882,-7L1032,241L1098,167Z" fill="#a1d8c5" stroke="#a1d8c5" stroke-width="1.51"/><path d="M602,-294L676,-256L943,-291Z" fill="#c7e9d2" stroke="#c7e9d2" stroke-width="1.51"/><path d="M943,885L728,954L1023,1134Z" fill="#60acbf" stroke="#60acbf" stroke-width="1.51"/><path d="M882,-7L675,158L1032,241Z" fill="#aaddc2" stroke="#aaddc2" stroke-width="1.51"/><path d="M1032,241L791,376L1043,262Z" fill="#96d5be" stroke="#96d5be" stroke-width="1.51"/><path d="M675,158L791,376L1032,241Z" fill="#a1dabc" stroke="#a1dabc" stroke-width="1.51"/><path d="M728,954L732,1217L1023,1134Z" fill="#63a4ba" stroke="#63a4ba" stroke-width="1.51"/><path d="M732,1217L960,1285L1023,1134Z" fill="#5898b6" stroke="#5898b6" stroke-width="1.51"/><path d="M791,376L716,542L874,624Z" fill="#8bd1bf" stroke="#8bd1bf" stroke-width="1.51"/><path d="M927,709L739,785L943,885Z" fill="#6ebfc8" stroke="#6ebfc8" stroke-width="1.51"/><path d="M732,1217L700,1318L960,1285Z" fill="#6095ae" stroke="#6095ae" stroke-width="1.51"/><path d="M739,785L728,954L943,885Z" fill="#6fb8c3" stroke="#6fb8c3" stroke-width="1.51"/><path d="M676,-256L844,-82L943,-291Z" fill="#bee5d1" stroke="#bee5d1" stroke-width="1.51"/><path d="M874,624L739,785L927,709Z" fill="#77c5c7" stroke="#77c5c7" stroke-width="1.51"/><path d="M675,158L652,280L791,376Z" fill="#a8ddb9" stroke="#a8ddb9" stroke-width="1.51"/><path d="M844,-82L675,158L882,-7Z" fill="#b4e2c5" stroke="#b4e2c5" stroke-width="1.51"/><path d="M596,-58L675,158L844,-82Z" fill="#bbe4c3" stroke="#bbe4c3" stroke-width="1.51"/><path d="M716,542L739,785L874,624Z" fill="#81cac4" stroke="#81cac4" stroke-width="1.51"/><path d="M676,-256L596,-58L844,-82Z" fill="#c1e7ca" stroke="#c1e7ca" stroke-width="1.51"/><path d="M728,954L503,1158L732,1217Z" fill="#71a7b6" stroke="#71a7b6" stroke-width="1.51"/><path d="M716,542L600,741L739,785Z" fill="#85cbc3" stroke="#85cbc3" stroke-width="1.51"/><path d="M545,486L716,542L791,376Z" fill="#97d6bb" stroke="#97d6bb" stroke-width="1.51"/><path d="M652,280L545,486L791,376Z" fill="#a2dab8" stroke="#a2dab8" stroke-width="1.51"/><path d="M515,886L503,1158L728,954Z" fill="#7ab3bb" stroke="#7ab3bb" stroke-width="1.51"/><path d="M515,886L728,954L739,785Z" fill="#7bbcc0" stroke="#7bbcc0" stroke-width="1.51"/><path d="M600,741L515,886L739,785Z" fill="#82c4c3" stroke="#82c4c3" stroke-width="1.51"/><path d="M596,-58L502,75L675,158Z" fill="#bfe6c0" stroke="#bfe6c0" stroke-width="1.51"/><path d="M545,486L600,741L716,542Z" fill="#91d2bf" stroke="#91d2bf" stroke-width="1.51"/><path d="M503,1158L700,1318L732,1217Z" fill="#6e9dae" stroke="#6e9dae" stroke-width="1.51"/><path d="M503,1158L547,1352L700,1318Z" fill="#7099ab" stroke="#7099ab" stroke-width="1.51"/><path d="M602,-294L596,-58L676,-256Z" fill="#caeacc" stroke="#caeacc" stroke-width="1.51"/><path d="M360,1251L91,1270L547,1352Z" fill="#7e9db1" stroke="#7e9db1" stroke-width="1.51"/><path d="M461,159L462,256L652,280Z" fill="#b7e2bb" stroke="#b7e2bb" stroke-width="1.51"/><path d="M462,256L545,486L652,280Z" fill="#abdeb8" stroke="#abdeb8" stroke-width="1.51"/><path d="M461,159L652,280L675,158Z" fill="#b5e2ba" stroke="#b5e2ba" stroke-width="1.51"/><path d="M502,75L461,159L675,158Z" fill="#bde5be" stroke="#bde5be" stroke-width="1.51"/><path d="M435,927L503,1158L515,886Z" fill="#80b6be" stroke="#80b6be" stroke-width="1.51"/><path d="M462,256L457,463L545,486Z" fill="#aaddbc" stroke="#aaddbc" stroke-width="1.51"/><path d="M423,-80L596,-58L602,-294Z" fill="#ccebcb" stroke="#ccebcb" stroke-width="1.51"/><path d="M423,-80L502,75L596,-58Z" fill="#c8e9c6" stroke="#c8e9c6" stroke-width="1.51"/><path d="M394,810L515,886L600,741Z" fill="#89c5c6" stroke="#89c5c6" stroke-width="1.51"/><path d="M545,486L457,463L600,741Z" fill="#98d5c0" stroke="#98d5c0" stroke-width="1.51"/><path d="M457,463L394,810L600,741Z" fill="#93d0c5" stroke="#93d0c5" stroke-width="1.51"/><path d="M152,-308L363,-143L602,-294Z" fill="#dbf1d5" stroke="#dbf1d5" stroke-width="1.51"/><path d="M363,-143L423,-80L602,-294Z" fill="#d2edcf" stroke="#d2edcf" stroke-width="1.51"/><path d="M277,754L394,810L457,463Z" fill="#99d2c8" stroke="#99d2c8" stroke-width="1.51"/><path d="M435,927L399,1140L503,1158Z" fill="#80afbc" stroke="#80afbc" stroke-width="1.51"/><path d="M503,1158L360,1251L547,1352Z" fill="#789eb1" stroke="#789eb1" stroke-width="1.51"/><path d="M5,1262L-273,1334L91,1270Z" fill="#8aa2be" stroke="#8aa2be" stroke-width="1.51"/><path d="M399,1140L360,1251L503,1158Z" fill="#7da6b8" stroke="#7da6b8" stroke-width="1.51"/><path d="M394,810L435,927L515,886Z" fill="#88c1c4" stroke="#88c1c4" stroke-width="1.51"/><path d="M423,-80L461,159L502,75Z" fill="#c7e9c4" stroke="#c7e9c4" stroke-width="1.51"/><path d="M243,973L399,1140L435,927Z" fill="#86b6c0" stroke="#86b6c0" stroke-width="1.51"/><path d="M143,622L277,754L457,463Z" fill="#a2d8c8" stroke="#a2d8c8" stroke-width="1.51"/><path d="M117,441L143,622L457,463Z" fill="#acddc7" stroke="#acddc7" stroke-width="1.51"/><path d="M423,-80L133,76L461,159Z" fill="#ceecc7" stroke="#ceecc7" stroke-width="1.51"/><path d="M117,441L457,463L462,256Z" fill="#b3e1bf" stroke="#b3e1bf" stroke-width="1.51"/><path d="M461,159L133,76L462,256Z" fill="#c6e9c2" stroke="#c6e9c2" stroke-width="1.51"/><path d="M133,76L117,441L462,256Z" fill="#c2e7c2" stroke="#c2e7c2" stroke-width="1.51"/><path d="M363,-143L133,76L423,-80Z" fill="#d4eecd" stroke="#d4eecd" stroke-width="1.51"/><path d="M394,810L243,973L435,927Z" fill="#8dc0c5" stroke="#8dc0c5" stroke-width="1.51"/><path d="M102,-32L133,76L363,-143Z" fill="#d6efd0" stroke="#d6efd0" stroke-width="1.51"/><path d="M277,754L243,973L394,810Z" fill="#92c7c9" stroke="#92c7c9" stroke-width="1.51"/><path d="M140,1096L360,1251L399,1140Z" fill="#84aabc" stroke="#84aabc" stroke-width="1.51"/><path d="M243,973L140,1096L399,1140Z" fill="#89b3c2" stroke="#89b3c2" stroke-width="1.51"/><path d="M140,1096L91,1270L360,1251Z" fill="#85a7bd" stroke="#85a7bd" stroke-width="1.51"/><path d="M152,-308L102,-32L363,-143Z" fill="#ddf2d6" stroke="#ddf2d6" stroke-width="1.51"/><path d="M-51,316L117,441L133,76Z" fill="#c6e9c7" stroke="#c6e9c7" stroke-width="1.51"/><path d="M-46,168L-51,316L133,76Z" fill="#cfedcd" stroke="#cfedcd" stroke-width="1.51"/><path d="M42,-176L102,-32L152,-308Z" fill="#e0f3da" stroke="#e0f3da" stroke-width="1.51"/><path d="M35,870L243,973L277,754Z" fill="#95c7cd" stroke="#95c7cd" stroke-width="1.51"/><path d="M143,622L35,870L277,754Z" fill="#9dd1d2" stroke="#9dd1d2" stroke-width="1.51"/><path d="M35,870L140,1096L243,973Z" fill="#90bcc9" stroke="#90bcc9" stroke-width="1.51"/><path d="M49,43L-46,168L133,76Z" fill="#d6efcf" stroke="#d6efcf" stroke-width="1.51"/><path d="M102,-32L49,43L133,76Z" fill="#d7f0d0" stroke="#d7f0d0" stroke-width="1.51"/><path d="M35,870L-51,1122L140,1096Z" fill="#91b9ca" stroke="#91b9ca" stroke-width="1.51"/><path d="M5,1262L91,1270L140,1096Z" fill="#89a8c1" stroke="#89a8c1" stroke-width="1.51"/><path d="M-51,1122L5,1262L140,1096Z" fill="#8cadc5" stroke="#8cadc5" stroke-width="1.51"/><path d="M117,441L-7,576L143,622Z" fill="#addecd" stroke="#addecd" stroke-width="1.51"/><path d="M6,638L35,870L143,622Z" fill="#a2d5d4" stroke="#a2d5d4" stroke-width="1.51"/><path d="M-201,-317L42,-176L152,-308Z" fill="#e9f6e2" stroke="#e9f6e2" stroke-width="1.51"/><path d="M-7,576L6,638L143,622Z" fill="#aadbd1" stroke="#aadbd1" stroke-width="1.51"/><path d="M-51,316L-7,576L117,441Z" fill="#b8e3cc" stroke="#b8e3cc" stroke-width="1.51"/><path d="M-156,1024L-51,1122L35,870Z" fill="#95bdce" stroke="#95bdce" stroke-width="1.51"/><path d="M42,-176L49,43L102,-32Z" fill="#dcf2d6" stroke="#dcf2d6" stroke-width="1.51"/><path d="M6,638L-144,729L35,870Z" fill="#a3d4d8" stroke="#a3d4d8" stroke-width="1.51"/><path d="M42,-176L-269,-116L49,43Z" fill="#e1f4db" stroke="#e1f4db" stroke-width="1.51"/><path d="M-269,-116L-46,168L49,43Z" fill="#ddf2d6" stroke="#ddf2d6" stroke-width="1.51"/><path d="M-51,316L-256,488L-7,576Z" fill="#bce4d1" stroke="#bce4d1" stroke-width="1.51"/><path d="M-201,-317L-269,-116L42,-176Z" fill="#eaf7e4" stroke="#eaf7e4" stroke-width="1.51"/><path d="M-144,729L-156,1024L35,870Z" fill="#9dc9d5" stroke="#9dc9d5" stroke-width="1.51"/><path d="M-122,260L-51,316L-46,168Z" fill="#cdeccd" stroke="#cdeccd" stroke-width="1.51"/><path d="M-51,1122L-273,1334L5,1262Z" fill="#8da7c4" stroke="#8da7c4" stroke-width="1.51"/><path d="M-7,576L-144,729L6,638Z" fill="#abdad6" stroke="#abdad6" stroke-width="1.51"/><path d="M-296,1193L-273,1334L-51,1122Z" fill="#92abc9" stroke="#92abc9" stroke-width="1.51"/><path d="M-256,488L-144,729L-7,576Z" fill="#b1ded6" stroke="#b1ded6" stroke-width="1.51"/><path d="M-122,260L-256,488L-51,316Z" fill="#c7e9ce" stroke="#c7e9ce" stroke-width="1.51"/><path d="M-247,243L-122,260L-46,168Z" fill="#d2edd0" stroke="#d2edd0" stroke-width="1.51"/><path d="M-269,-116L-247,243L-46,168Z" fill="#ddf2d6" stroke="#ddf2d6" stroke-width="1.51"/><path d="M-156,1024L-296,1193L-51,1122Z" fill="#95b4ce" stroke="#95b4ce" stroke-width="1.51"/><path d="M-296,1193L-156,1024L-144,729Z" fill="#9bc0d4" stroke="#9bc0d4" stroke-width="1.51"/><path d="M-247,243L-256,488L-122,260Z" fill="#cbebcf" stroke="#cbebcf" stroke-width="1.51"/><path d="M-256,488L-296,1193L-144,729Z" fill="#a7d2dd" stroke="#a7d2dd" stroke-width="1.51"/><path d="M-269,-116L-256,488L-247,243Z" fill="#d7f0d5" stroke="#d7f0d5" stroke-width="1.51"/><path d="M-269,-116L-296,1193L-256,488Z" fill="#bce4d8" stroke="#bce4d8" stroke-width="1.51"/></svg>