<svg xmlns="http://www.w3.org/2000/svg" width="1920" height="1080"><path d="M700 1318l-153 34 586-33z" fill="#5f8fa8" stroke="#5f8fa8" stroke-width="1.51"/><path d="M1133 1319l-586 33 918 50z" fill="#4885ab" stroke="#4885ab" stroke-width="1.51"/><path d="M-201-317l353 9 1337-29z" fill="#d8f0d5" stroke="#d8f0d5" stroke-width="1.51"/><path d="M602-294l341 3 546-46z" fill="#b8e2da" stroke="#b8e2da" stroke-width="1.51"/><path d="M152-308l450 14 887-43z" fill="#c8e9d4" stroke="#c8e9d4" stroke-width="1.51"/><path d="M1489-337l201 31 217-26z" fill="#9bbbd4" stroke="#9bbbd4" stroke-width="1.51"/><path d="M1913 1259l-123 88 356-103z" fill="#0a5da1" stroke="#0a5da1" stroke-width="1.51"/><path d="M2061 836l-210 89 371 182z" fill="#2173ad" stroke="#2173ad" stroke-width="1.51"/><path d="M1851 925l48 285 323-103z" fill="#166cab" stroke="#166cab" stroke-width="1.51"/><path d="M2160 728l-99 108 161 271z" fill="#2871a9" stroke="#2871a9" stroke-width="1.51"/><path d="M2019 532l124 63 83-181z" fill="#538aa9" stroke="#538aa9" stroke-width="1.51"/><path d="M2024 299l-5 233 207-118z" fill="#6090a8" stroke="#6090a8" stroke-width="1.51"/><path d="M2151 94l-127 205 202 115z" fill="#6e92a5" stroke="#6e92a5" stroke-width="1.51"/><path d="M2143 595l17 133 66-314z" fill="#4a84a8" stroke="#4a84a8" stroke-width="1.51"/><path d="M2194-58l-43 152 75 320z" fill="#7792a5" stroke="#7792a5" stroke-width="1.51"/><path d="M2160 728l62 379 4-693z" fill="#3479ab" stroke="#3479ab" stroke-width="1.51"/><path d="M1899 1210l247 34 76-137z" fill="#0b5da0" stroke="#0b5da0" stroke-width="1.51"/><path d="M1990-64l161 158 43-152z" fill="#819ab1" stroke="#819ab1" stroke-width="1.51"/><path d="M2102-236L1990-64l204 6z" fill="#869db8" stroke="#869db8" stroke-width="1.51"/><path d="M2143 595l-155 59 172 74z" fill="#4285af" stroke="#4285af" stroke-width="1.51"/><path d="M1988 654l73 182 99-108z" fill="#3783b4" stroke="#3783b4" stroke-width="1.51"/><path d="M1899 1210l14 49 233-15z" fill="#095fa3" stroke="#095fa3" stroke-width="1.51"/><path d="M1855 227l169 72 127-205z" fill="#769caf" stroke="#769caf" stroke-width="1.51"/><path d="M1990-64l-135 291 296-133z" fill="#80a1b5" stroke="#80a1b5" stroke-width="1.51"/><path d="M2019 532l-31 122 155-59z" fill="#4b8cb1" stroke="#4b8cb1" stroke-width="1.51"/><path d="M1784 106l71 121 135-291z" fill="#83a9bb" stroke="#83a9bb" stroke-width="1.51"/><path d="M1907-332l83 268 112-172z" fill="#8da6c3" stroke="#8da6c3" stroke-width="1.51"/><path d="M1851 925l-59 71 107 214z" fill="#1d78b5" stroke="#1d78b5" stroke-width="1.51"/><path d="M1802 433l217 99 5-233z" fill="#629ab3" stroke="#629ab3" stroke-width="1.51"/><path d="M1988 654l-207 100 280 82z" fill="#368bbd" stroke="#368bbd" stroke-width="1.51"/><path d="M1781 754l70 171 210-89z" fill="#2e86bc" stroke="#2e86bc" stroke-width="1.51"/><path d="M1855 227l-53 206 222-134z" fill="#6fa1b2" stroke="#6fa1b2" stroke-width="1.51"/><path d="M1802 433l186 221 31-122z" fill="#5297b7" stroke="#5297b7" stroke-width="1.51"/><path d="M1690-306l36 314 181-340z" fill="#94b4cd" stroke="#94b4cd" stroke-width="1.51"/><path d="M1802 433l-75 185 261 36z" fill="#519bbb" stroke="#519bbb" stroke-width="1.51"/><path d="M1907-332L1726 8l264-72z" fill="#8dadc6" stroke="#8dadc6" stroke-width="1.51"/><path d="M1726 8l58 98 206-170z" fill="#88adc0" stroke="#88adc0" stroke-width="1.51"/><path d="M1727 618l54 136 207-100z" fill="#4496bf" stroke="#4496bf" stroke-width="1.51"/><path d="M1792 996l-130 57 237 157z" fill="#1d78b4" stroke="#1d78b4" stroke-width="1.51"/><path d="M1899 1210l-109 137 123-88z" fill="#0d63a5" stroke="#0d63a5" stroke-width="1.51"/><path d="M1662 1053l128 294 109-137z" fill="#136eaf" stroke="#136eaf" stroke-width="1.51"/><path d="M1781 754l11 242 59-71z" fill="#2c87bc" stroke="#2c87bc" stroke-width="1.51"/><path d="M1784 106l-224 70 295 51z" fill="#81b0bc" stroke="#81b0bc" stroke-width="1.51"/><path d="M1550 366l252 67 53-206z" fill="#71aab8" stroke="#71aab8" stroke-width="1.51"/><path d="M1560 176l-10 190 305-139z" fill="#7bb2bc" stroke="#7bb2bc" stroke-width="1.51"/><path d="M1500 810l162 243 119-299z" fill="#3392c2" stroke="#3392c2" stroke-width="1.51"/><path d="M1662 1053l-178 102 306 192z" fill="#1c78b4" stroke="#1c78b4" stroke-width="1.51"/><path d="M1781 754l-119 299 130-57z" fill="#2a87bc" stroke="#2a87bc" stroke-width="1.51"/><path d="M1550 366l177 252 75-185z" fill="#61a8bc" stroke="#61a8bc" stroke-width="1.51"/><path d="M1690-306L1461-13l265 21z" fill="#92bbcc" stroke="#92bbcc" stroke-width="1.51"/><path d="M1484 1155l-19 247 325-55z" fill="#2071ab" stroke="#2071ab" stroke-width="1.51"/><path d="M1445-254l16 241 229-293z" fill="#9ac3d3" stroke="#9ac3d3" stroke-width="1.51"/><path d="M1726 8l-166 168 224-70z" fill="#88b4c0" stroke="#88b4c0" stroke-width="1.51"/><path d="M1727 618l-205 17 259 119z" fill="#499fc3" stroke="#499fc3" stroke-width="1.51"/><path d="M1522 635l-22 175 281-56z" fill="#42a0c8" stroke="#42a0c8" stroke-width="1.51"/><path d="M1500 810l-44 103 206 140z" fill="#3494c3" stroke="#3494c3" stroke-width="1.51"/><path d="M1461-13l99 189L1726 8z" fill="#8cbcc5" stroke="#8cbcc5" stroke-width="1.51"/><path d="M1550 366l-28 269 205-17z" fill="#5aabc1" stroke="#5aabc1" stroke-width="1.51"/><path d="M1489-337l-44 83 245-52z" fill="#9fc5d7" stroke="#9fc5d7" stroke-width="1.51"/><path d="M1416 565l106 70 28-269z" fill="#61b2c4" stroke="#61b2c4" stroke-width="1.51"/><path d="M1456 913l28 242 178-102z" fill="#2c8abe" stroke="#2c8abe" stroke-width="1.51"/><path d="M960 1285l-260 33 433 1z" fill="#538ead" stroke="#538ead" stroke-width="1.51"/><path d="M1362 1261l103 141 19-247z" fill="#2a7cb2" stroke="#2a7cb2" stroke-width="1.51"/><path d="M943-291l306 81 240-127z" fill="#abd8de" stroke="#abd8de" stroke-width="1.51"/><path d="M1430 762l70 48 22-175z" fill="#47a7cb" stroke="#47a7cb" stroke-width="1.51"/><path d="M1351 250l199 116 10-190z" fill="#7fbcc0" stroke="#7fbcc0" stroke-width="1.51"/><path d="M1410 117l-59 133 209-74z" fill="#89c2c4" stroke="#89c2c4" stroke-width="1.51"/><path d="M1461-13l-51 130 150 59z" fill="#8fc1c7" stroke="#8fc1c7" stroke-width="1.51"/><path d="M1242 424l174 141 134-199z" fill="#6ebbc5" stroke="#6ebbc5" stroke-width="1.51"/><path d="M1351 250l-109 174 308-58z" fill="#7cc0c2" stroke="#7cc0c2" stroke-width="1.51"/><path d="M1343 899l-120 95 261 161z" fill="#3898c5" stroke="#3898c5" stroke-width="1.51"/><path d="M1456 913l-113-14 141 256z" fill="#3595c3" stroke="#3595c3" stroke-width="1.51"/><path d="M1416 565l14 197 92-127z" fill="#53aeca" stroke="#53aeca" stroke-width="1.51"/><path d="M1249-210l5 146 191-190z" fill="#a2d1d9" stroke="#a2d1d9" stroke-width="1.51"/><path d="M1445-254L1254-64l207 51z" fill="#9bcbd4" stroke="#9bcbd4" stroke-width="1.51"/><path d="M1223 994l-6 102 267 59z" fill="#3895c4" stroke="#3895c4" stroke-width="1.51"/><path d="M1217 1096l137 117 130-58z" fill="#328cbf" stroke="#328cbf" stroke-width="1.51"/><path d="M1354 1213l8 48 122-106z" fill="#2d84bb" stroke="#2d84bb" stroke-width="1.51"/><path d="M1430 762l26 151 44-103z" fill="#40a1ca" stroke="#40a1ca" stroke-width="1.51"/><path d="M1430 762l-87 137 113 14z" fill="#41a1ca" stroke="#41a1ca" stroke-width="1.51"/><path d="M1249-210l196-44 44-83z" fill="#a3ceda" stroke="#a3ceda" stroke-width="1.51"/><path d="M1362 1261l-229 58 332 83z" fill="#317db1" stroke="#317db1" stroke-width="1.51"/><path d="M1254-64l156 181 51-130z" fill="#96cace" stroke="#96cace" stroke-width="1.51"/><path d="M1416 565l-257 163 271 34z" fill="#55b3cf" stroke="#55b3cf" stroke-width="1.51"/><path d="M1159 728l184 171 87-137z" fill="#4aadd0" stroke="#4aadd0" stroke-width="1.51"/><path d="M1242 424l-129 127 303 14z" fill="#6cc1ca" stroke="#6cc1ca" stroke-width="1.51"/><path d="M1113 551l46 177 257-163z" fill="#63bdcd" stroke="#63bdcd" stroke-width="1.51"/><path d="M1098 167l253 83 59-133z" fill="#8fccc9" stroke="#8fccc9" stroke-width="1.51"/><path d="M1254-64l-156 231 312-50z" fill="#99d0ce" stroke="#99d0ce" stroke-width="1.51"/><path d="M1354 1213l-221 106 229-58z" fill="#3386b9" stroke="#3386b9" stroke-width="1.51"/><path d="M1217 1096l-84 223 221-106z" fill="#3a8dbe" stroke="#3a8dbe" stroke-width="1.51"/><path d="M1098 167l144 257 109-174z" fill="#89cbc5" stroke="#89cbc5" stroke-width="1.51"/><path d="M1159 728l64 266 120-95z" fill="#49aacd" stroke="#49aacd" stroke-width="1.51"/><path d="M91 1270l-364 64 820 18z" fill="#839db4" stroke="#839db4" stroke-width="1.51"/><path d="M1023 1134l110 185 84-223z" fill="#4593bd" stroke="#4593bd" stroke-width="1.51"/><path d="M1159 728L943 885l280 109z" fill="#56afca" stroke="#56afca" stroke-width="1.51"/><path d="M1098 167l-55 95 199 162z" fill="#8ecfc2" stroke="#8ecfc2" stroke-width="1.51"/><path d="M943-291l195 173 111-92z" fill="#addbd7" stroke="#addbd7" stroke-width="1.51"/><path d="M1249-210l-111 92 116 54z" fill="#a4d6d6" stroke="#a4d6d6" stroke-width="1.51"/><path d="M1138-118l-40 285 156-231z" fill="#a1d5cf" stroke="#a1d5cf" stroke-width="1.51"/><path d="M1043 262l70 289 129-127z" fill="#80cac4" stroke="#80cac4" stroke-width="1.51"/><path d="M1023 1134l194-38 6-102z" fill="#479cc2" stroke="#479cc2" stroke-width="1.51"/><path d="M943 885l80 249 200-140z" fill="#51a5c3" stroke="#51a5c3" stroke-width="1.51"/><path d="M1023 1134l-63 151 173 34z" fill="#4c91b5" stroke="#4c91b5" stroke-width="1.51"/><path d="M882-7l216 174 40-285z" fill="#a6dacb" stroke="#a6dacb" stroke-width="1.51"/><path d="M1113 551L927 709l232 19z" fill="#6ac0cb" stroke="#6ac0cb" stroke-width="1.51"/><path d="M927 709l16 176 216-157z" fill="#63bccc" stroke="#63bccc" stroke-width="1.51"/><path d="M1032 241l11 21 55-95z" fill="#97d3c3" stroke="#97d3c3" stroke-width="1.51"/><path d="M1043 262L791 376l322 175z" fill="#8ad0c0" stroke="#8ad0c0" stroke-width="1.51"/><path d="M943-291L844-82l294-36z" fill="#b2e0d2" stroke="#b2e0d2" stroke-width="1.51"/><path d="M844-82l38 75 256-111z" fill="#aedfcd" stroke="#aedfcd" stroke-width="1.51"/><path d="M791 376l83 248 239-73z" fill="#80cec2" stroke="#80cec2" stroke-width="1.51"/><path d="M874 624l53 85 186-158z" fill="#73c6c8" stroke="#73c6c8" stroke-width="1.51"/><path d="M882-7l150 248 66-74z" fill="#a1d8c5" stroke="#a1d8c5" stroke-width="1.51"/><path d="M602-294l74 38 267-35z" fill="#c7e9d2" stroke="#c7e9d2" stroke-width="1.51"/><path d="M943 885l-215 69 295 180z" fill="#60acbf" stroke="#60acbf" stroke-width="1.51"/><path d="M882-7L675 158l357 83z" fill="#aaddc2" stroke="#aaddc2" stroke-width="1.51"/><path d="M1032 241L791 376l252-114z" fill="#96d5be" stroke="#96d5be" stroke-width="1.51"/><path d="M675 158l116 218 241-135z" fill="#a1dabc" stroke="#a1dabc" stroke-width="1.51"/><path d="M728 954l4 263 291-83z" fill="#63a4ba" stroke="#63a4ba" stroke-width="1.51"/><path d="M732 1217l228 68 63-151z" fill="#5898b6" stroke="#5898b6" stroke-width="1.51"/><path d="M791 376l-75 166 158 82z" fill="#8bd1bf" stroke="#8bd1bf" stroke-width="1.51"/><path d="M927 709l-188 76 204 100z" fill="#6ebfc8" stroke="#6ebfc8" stroke-width="1.51"/><path d="M732 1217l-32 101 260-33z" fill="#6095ae" stroke="#6095ae" stroke-width="1.51"/><path d="M739 785l-11 169 215-69z" fill="#6fb8c3" stroke="#6fb8c3" stroke-width="1.51"/><path d="M676-256L844-82l99-209z" fill="#bee5d1" stroke="#bee5d1" stroke-width="1.51"/><path d="M874 624L739 785l188-76z" fill="#77c5c7" stroke="#77c5c7" stroke-width="1.51"/><path d="M675 158l-23 122 139 96z" fill="#a8ddb9" stroke="#a8ddb9" stroke-width="1.51"/><path d="M844-82L675 158 882-7z" fill="#b4e2c5" stroke="#b4e2c5" stroke-width="1.51"/><path d="M596-58l79 216L844-82z" fill="#bbe4c3" stroke="#bbe4c3" stroke-width="1.51"/><path d="M716 542l23 243 135-161z" fill="#81cac4" stroke="#81cac4" stroke-width="1.51"/><path d="M676-256L596-58l248-24z" fill="#c1e7ca" stroke="#c1e7ca" stroke-width="1.51"/><path d="M728 954l-225 204 229 59z" fill="#71a7b6" stroke="#71a7b6" stroke-width="1.51"/><path d="M716 542L600 741l139 44z" fill="#85cbc3" stroke="#85cbc3" stroke-width="1.51"/><path d="M545 486l171 56 75-166z" fill="#97d6bb" stroke="#97d6bb" stroke-width="1.51"/><path d="M652 280L545 486l246-110z" fill="#a2dab8" stroke="#a2dab8" stroke-width="1.51"/><path d="M515 886l-12 272 225-204z" fill="#7ab3bb" stroke="#7ab3bb" stroke-width="1.51"/><path d="M515 886l213 68 11-169z" fill="#7bbcc0" stroke="#7bbcc0" stroke-width="1.51"/><path d="M600 741l-85 145 224-101z" fill="#82c4c3" stroke="#82c4c3" stroke-width="1.51"/><path d="M596-58L502 75l173 83z" fill="#bfe6c0" stroke="#bfe6c0" stroke-width="1.51"/><path d="M545 486l55 255 116-199z" fill="#91d2bf" stroke="#91d2bf" stroke-width="1.51"/><path d="M503 1158l197 160 32-101z" fill="#6e9dae" stroke="#6e9dae" stroke-width="1.51"/><path d="M503 1158l44 194 153-34z" fill="#7099ab" stroke="#7099ab" stroke-width="1.51"/><path d="M602-294l-6 236 80-198z" fill="#caeacc" stroke="#caeacc" stroke-width="1.51"/><path d="M360 1251l-269 19 456 82z" fill="#7e9db1" stroke="#7e9db1" stroke-width="1.51"/><path d="M461 159l1 97 190 24z" fill="#b7e2bb" stroke="#b7e2bb" stroke-width="1.51"/><path d="M462 256l83 230 107-206z" fill="#abdeb8" stroke="#abdeb8" stroke-width="1.51"/><path d="M461 159l191 121 23-122z" fill="#b5e2ba" stroke="#b5e2ba" stroke-width="1.51"/><path d="M502 75l-41 84 214-1z" fill="#bde5be" stroke="#bde5be" stroke-width="1.51"/><path d="M435 927l68 231 12-272z" fill="#80b6be" stroke="#80b6be" stroke-width="1.51"/><path d="M462 256l-5 207 88 23z" fill="#aaddbc" stroke="#aaddbc" stroke-width="1.51"/><path d="M423-80l173 22 6-236z" fill="#ccebcb" stroke="#ccebcb" stroke-width="1.51"/><path d="M423-80l79 155 94-133z" fill="#c8e9c6" stroke="#c8e9c6" stroke-width="1.51"/><path d="M394 810l121 76 85-145z" fill="#89c5c6" stroke="#89c5c6" stroke-width="1.51"/><path d="M545 486l-88-23 143 278z" fill="#98d5c0" stroke="#98d5c0" stroke-width="1.51"/><path d="M457 463l-63 347 206-69z" fill="#93d0c5" stroke="#93d0c5" stroke-width="1.51"/><path d="M152-308l211 165 239-151z" fill="#dbf1d5" stroke="#dbf1d5" stroke-width="1.51"/><path d="M363-143l60 63 179-214z" fill="#d2edcf" stroke="#d2edcf" stroke-width="1.51"/><path d="M277 754l117 56 63-347z" fill="#99d2c8" stroke="#99d2c8" stroke-width="1.51"/><path d="M435 927l-36 213 104 18z" fill="#80afbc" stroke="#80afbc" stroke-width="1.51"/><path d="M503 1158l-143 93 187 101z" fill="#789eb1" stroke="#789eb1" stroke-width="1.51"/><path d="M5 1262l-278 72 364-64z" fill="#8aa2be" stroke="#8aa2be" stroke-width="1.51"/><path d="M399 1140l-39 111 143-93z" fill="#7da6b8" stroke="#7da6b8" stroke-width="1.51"/><path d="M394 810l41 117 80-41z" fill="#88c1c4" stroke="#88c1c4" stroke-width="1.51"/><path d="M423-80l38 239 41-84z" fill="#c7e9c4" stroke="#c7e9c4" stroke-width="1.51"/><path d="M243 973l156 167 36-213z" fill="#86b6c0" stroke="#86b6c0" stroke-width="1.51"/><path d="M143 622l134 132 180-291z" fill="#a2d8c8" stroke="#a2d8c8" stroke-width="1.51"/><path d="M117 441l26 181 314-159z" fill="#acddc7" stroke="#acddc7" stroke-width="1.51"/><path d="M423-80L133 76l328 83z" fill="#ceecc7" stroke="#ceecc7" stroke-width="1.51"/><path d="M117 441l340 22 5-207z" fill="#b3e1bf" stroke="#b3e1bf" stroke-width="1.51"/><path d="M461 159L133 76l329 180z" fill="#c6e9c2" stroke="#c6e9c2" stroke-width="1.51"/><path d="M133 76l-16 365 345-185z" fill="#c2e7c2" stroke="#c2e7c2" stroke-width="1.51"/><path d="M363-143L133 76 423-80z" fill="#d4eecd" stroke="#d4eecd" stroke-width="1.51"/><path d="M394 810L243 973l192-46z" fill="#8dc0c5" stroke="#8dc0c5" stroke-width="1.51"/><path d="M102-32l31 108 230-219z" fill="#d6efd0" stroke="#d6efd0" stroke-width="1.51"/><path d="M277 754l-34 219 151-163z" fill="#92c7c9" stroke="#92c7c9" stroke-width="1.51"/><path d="M140 1096l220 155 39-111z" fill="#84aabc" stroke="#84aabc" stroke-width="1.51"/><path d="M243 973l-103 123 259 44z" fill="#89b3c2" stroke="#89b3c2" stroke-width="1.51"/><path d="M140 1096l-49 174 269-19z" fill="#85a7bd" stroke="#85a7bd" stroke-width="1.51"/><path d="M152-308L102-32l261-111z" fill="#ddf2d6" stroke="#ddf2d6" stroke-width="1.51"/><path d="M-51 316l168 125 16-365z" fill="#c6e9c7" stroke="#c6e9c7" stroke-width="1.51"/><path d="M-46 168l-5 148L133 76z" fill="#cfedcd" stroke="#cfedcd" stroke-width="1.51"/><path d="M42-176l60 144 50-276z" fill="#e0f3da" stroke="#e0f3da" stroke-width="1.51"/><path d="M35 870l208 103 34-219z" fill="#95c7cd" stroke="#95c7cd" stroke-width="1.51"/><path d="M143 622L35 870l242-116z" fill="#9dd1d2" stroke="#9dd1d2" stroke-width="1.51"/><path d="M35 870l105 226 103-123z" fill="#90bcc9" stroke="#90bcc9" stroke-width="1.51"/><path d="M49 43l-95 125 179-92z" fill="#d6efcf" stroke="#d6efcf" stroke-width="1.51"/><path d="M102-32L49 43l84 33z" fill="#d7f0d0" stroke="#d7f0d0" stroke-width="1.51"/><path d="M35 870l-86 252 191-26z" fill="#91b9ca" stroke="#91b9ca" stroke-width="1.51"/><path d="M5 1262l86 8 49-174z" fill="#89a8c1" stroke="#89a8c1" stroke-width="1.51"/><path d="M-51 1122l56 140 135-166z" fill="#8cadc5" stroke="#8cadc5" stroke-width="1.51"/><path d="M117 441L-7 576l150 46z" fill="#addecd" stroke="#addecd" stroke-width="1.51"/><path d="M6 638l29 232 108-248z" fill="#a2d5d4" stroke="#a2d5d4" stroke-width="1.51"/><path d="M-201-317L42-176l110-132z" fill="#e9f6e2" stroke="#e9f6e2" stroke-width="1.51"/><path d="M-7 576l13 62 137-16z" fill="#aadbd1" stroke="#aadbd1" stroke-width="1.51"/><path d="M-51 316l44 260 124-135z" fill="#b8e3cc" stroke="#b8e3cc" stroke-width="1.51"/><path d="M-156 1024l105 98 86-252z" fill="#95bdce" stroke="#95bdce" stroke-width="1.51"/><path d="M42-176l7 219 53-75z" fill="#dcf2d6" stroke="#dcf2d6" stroke-width="1.51"/><path d="M6 638l-150 91L35 870z" fill="#a3d4d8" stroke="#a3d4d8" stroke-width="1.51"/><path d="M42-176l-311 60L49 43z" fill="#e1f4db" stroke="#e1f4db" stroke-width="1.51"/><path d="M-269-116l223 284L49 43z" fill="#ddf2d6" stroke="#ddf2d6" stroke-width="1.51"/><path d="M-51 316l-205 172 249 88z" fill="#bce4d1" stroke="#bce4d1" stroke-width="1.51"/><path d="M-201-317l-68 201 311-60z" fill="#eaf7e4" stroke="#eaf7e4" stroke-width="1.51"/><path d="M-144 729l-12 295L35 870z" fill="#9dc9d5" stroke="#9dc9d5" stroke-width="1.51"/><path d="M-122 260l71 56 5-148z" fill="#cdeccd" stroke="#cdeccd" stroke-width="1.51"/><path d="M-51 1122l-222 212 278-72z" fill="#8da7c4" stroke="#8da7c4" stroke-width="1.51"/><path d="M-7 576l-137 153L6 638z" fill="#abdad6" stroke="#abdad6" stroke-width="1.51"/><path d="M-296 1193l23 141 222-212z" fill="#92abc9" stroke="#92abc9" stroke-width="1.51"/><path d="M-256 488l112 241L-7 576z" fill="#b1ded6" stroke="#b1ded6" stroke-width="1.51"/><path d="M-122 260l-134 228 205-172z" fill="#c7e9ce" stroke="#c7e9ce" stroke-width="1.51"/><path d="M-247 243l125 17 76-92z" fill="#d2edd0" stroke="#d2edd0" stroke-width="1.51"/><path d="M-269-116l22 359 201-75z" fill="#ddf2d6" stroke="#ddf2d6" stroke-width="1.51"/><path d="M-156 1024l-140 169 245-71z" fill="#95b4ce" stroke="#95b4ce" stroke-width="1.51"/><path d="M-296 1193l140-169 12-295z" fill="#9bc0d4" stroke="#9bc0d4" stroke-width="1.51"/><path d="M-247 243l-9 245 134-228z" fill="#cbebcf" stroke="#cbebcf" stroke-width="1.51"/><path d="M-256 488l-40 705 152-464z" fill="#a7d2dd" stroke="#a7d2dd" stroke-width="1.51"/><path d="M-269-116l13 604 9-245z" fill="#d7f0d5" stroke="#d7f0d5" stroke-width="1.51"/><path d="M-269-116l-27 1309 40-705z" fill="#bce4d8" stroke="#bce4d8" stroke-width="1.51"/></svg>